<svg width="10" height="10" viewBox="0 0 10 10" fill="none" xmlns="http://www.w3.org/2000/svg">
<path d="M1 2H0V9C0 9.55 0.45 10 1 10H8V9H1V2ZM9 0H3C2.45 0 2 0.45 2 1V7C2 7.55 2.45 8 3 8H9C9.55 8 10 7.55 10 7V1C10 0.45 9.55 0 9 0ZM9 7H3V1H9V7ZM5.755 4.08C5.96 3.715 6.345 3.5 6.57 3.18C6.81 2.84 6.675 2.21 6 2.21C5.56 2.21 5.34 2.545 5.25 2.825L4.565 2.54C4.755 1.98 5.26 1.5 5.995 1.5C6.61 1.5 7.035 1.78 7.25 2.13C7.435 2.43 7.54 2.995 7.255 3.415C6.94 3.88 6.64 4.02 6.475 4.32C6.41 4.44 6.385 4.52 6.385 4.91H5.625C5.63 4.705 5.595 4.37 5.755 4.08ZM5.475 5.975C5.475 5.68 5.71 5.455 6 5.455C6.295 5.455 6.52 5.68 6.52 5.975C6.52 6.265 6.3 6.5 6 6.5C5.71 6.5 5.475 6.265 5.475 5.975Z" fill="white"/>
</svg>
